<mxfile host="app.diagrams.net" modified="2022-03-03T12:33:25.423Z" agent="5.0 (Windows)" etag="r-GMNXGUbJVMPQBWqhz5" version="16.6.5" type="github">
  <diagram id="N1p5Ko9E5xIgINEbjYPs" name="Page-1">
    <mxGraphModel dx="789" dy="1033" grid="1" gridSize="10" guides="1" tooltips="1" connect="1" arrows="1" fold="1" page="1" pageScale="1" pageWidth="827" pageHeight="1169" math="0" shadow="0">
      <root>
        <mxCell id="0" />
        <mxCell id="1" parent="0" />
        <mxCell id="KkvujRTfWo5065GrqcyY-1" value="&lt;div&gt;Manual&lt;/div&gt;&lt;div&gt;sorting&lt;/div&gt;" style="shape=umlActor;verticalLabelPosition=bottom;verticalAlign=top;html=1;" vertex="1" parent="1">
          <mxGeometry x="560" y="750" width="30" height="60" as="geometry" />
        </mxCell>
        <mxCell id="KkvujRTfWo5065GrqcyY-20" value="" style="group" vertex="1" connectable="0" parent="1">
          <mxGeometry x="240" y="574" width="185" height="21" as="geometry" />
        </mxCell>
        <mxCell id="KkvujRTfWo5065GrqcyY-2" value="" style="shape=providedRequiredInterface;html=1;verticalLabelPosition=bottom;sketch=0;" vertex="1" parent="KkvujRTfWo5065GrqcyY-20">
          <mxGeometry x="165" y="1" width="20" height="20" as="geometry" />
        </mxCell>
        <mxCell id="KkvujRTfWo5065GrqcyY-4" value="" style="endArrow=none;html=1;rounded=0;startArrow=none;exitX=0.669;exitY=1;exitDx=0;exitDy=0;exitPerimeter=0;" edge="1" parent="KkvujRTfWo5065GrqcyY-20" source="KkvujRTfWo5065GrqcyY-3">
          <mxGeometry relative="1" as="geometry">
            <mxPoint x="15" as="sourcePoint" />
            <mxPoint x="175" y="1" as="targetPoint" />
          </mxGeometry>
        </mxCell>
        <mxCell id="KkvujRTfWo5065GrqcyY-3" value="" style="shape=providedRequiredInterface;html=1;verticalLabelPosition=bottom;sketch=0;rotation=-180;" vertex="1" parent="KkvujRTfWo5065GrqcyY-20">
          <mxGeometry y="1" width="20" height="20" as="geometry" />
        </mxCell>
        <mxCell id="KkvujRTfWo5065GrqcyY-5" value="" style="endArrow=none;html=1;rounded=0;" edge="1" parent="KkvujRTfWo5065GrqcyY-20" target="KkvujRTfWo5065GrqcyY-3">
          <mxGeometry relative="1" as="geometry">
            <mxPoint x="15" as="sourcePoint" />
            <mxPoint x="175" as="targetPoint" />
          </mxGeometry>
        </mxCell>
        <mxCell id="KkvujRTfWo5065GrqcyY-6" value="" style="endArrow=none;html=1;rounded=0;startArrow=none;exitX=0.45;exitY=0;exitDx=0;exitDy=0;exitPerimeter=0;entryX=0.438;entryY=1;entryDx=0;entryDy=0;entryPerimeter=0;" edge="1" parent="KkvujRTfWo5065GrqcyY-20" source="KkvujRTfWo5065GrqcyY-3" target="KkvujRTfWo5065GrqcyY-2">
          <mxGeometry relative="1" as="geometry">
            <mxPoint x="25" y="76" as="sourcePoint" />
            <mxPoint x="165" y="21" as="targetPoint" />
          </mxGeometry>
        </mxCell>
        <mxCell id="KkvujRTfWo5065GrqcyY-21" value="Air, by plane" style="text;html=1;align=center;verticalAlign=middle;resizable=0;points=[];autosize=1;strokeColor=none;fillColor=none;" vertex="1" parent="KkvujRTfWo5065GrqcyY-20">
          <mxGeometry x="25" y="1" width="80" height="20" as="geometry" />
        </mxCell>
        <mxCell id="KkvujRTfWo5065GrqcyY-25" value="" style="shape=mxgraph.signs.transportation.airplane_1;html=1;pointerEvents=1;fillColor=#000000;strokeColor=none;verticalLabelPosition=bottom;verticalAlign=top;align=center;" vertex="1" parent="KkvujRTfWo5065GrqcyY-20">
          <mxGeometry x="120" y="6" width="29" height="10" as="geometry" />
        </mxCell>
        <mxCell id="KkvujRTfWo5065GrqcyY-23" value="" style="group" vertex="1" connectable="0" parent="1">
          <mxGeometry x="127" y="649" width="185" height="21" as="geometry" />
        </mxCell>
        <mxCell id="KkvujRTfWo5065GrqcyY-13" value="" style="shape=providedRequiredInterface;html=1;verticalLabelPosition=bottom;sketch=0;" vertex="1" parent="KkvujRTfWo5065GrqcyY-23">
          <mxGeometry x="165" y="1" width="20" height="20" as="geometry" />
        </mxCell>
        <mxCell id="KkvujRTfWo5065GrqcyY-14" value="" style="endArrow=none;html=1;rounded=0;startArrow=none;" edge="1" parent="KkvujRTfWo5065GrqcyY-23">
          <mxGeometry relative="1" as="geometry">
            <mxPoint x="10" y="1" as="sourcePoint" />
            <mxPoint x="175" y="1" as="targetPoint" />
          </mxGeometry>
        </mxCell>
        <mxCell id="KkvujRTfWo5065GrqcyY-15" value="" style="shape=providedRequiredInterface;html=1;verticalLabelPosition=bottom;sketch=0;rotation=-180;" vertex="1" parent="KkvujRTfWo5065GrqcyY-23">
          <mxGeometry y="1" width="20" height="20" as="geometry" />
        </mxCell>
        <mxCell id="KkvujRTfWo5065GrqcyY-16" value="" style="endArrow=none;html=1;rounded=0;" edge="1" parent="KkvujRTfWo5065GrqcyY-23" target="KkvujRTfWo5065GrqcyY-15">
          <mxGeometry relative="1" as="geometry">
            <mxPoint x="15" as="sourcePoint" />
            <mxPoint x="175" as="targetPoint" />
          </mxGeometry>
        </mxCell>
        <mxCell id="KkvujRTfWo5065GrqcyY-17" value="" style="endArrow=none;html=1;rounded=0;startArrow=none;exitX=0.45;exitY=0;exitDx=0;exitDy=0;exitPerimeter=0;entryX=0.505;entryY=1.012;entryDx=0;entryDy=0;entryPerimeter=0;" edge="1" parent="KkvujRTfWo5065GrqcyY-23" source="KkvujRTfWo5065GrqcyY-15" target="KkvujRTfWo5065GrqcyY-13">
          <mxGeometry relative="1" as="geometry">
            <mxPoint x="25" y="76" as="sourcePoint" />
            <mxPoint x="189" y="76" as="targetPoint" />
          </mxGeometry>
        </mxCell>
        <mxCell id="KkvujRTfWo5065GrqcyY-27" value="" style="shape=mxgraph.signs.transportation.truck_4;html=1;pointerEvents=1;fillColor=#000000;strokeColor=none;verticalLabelPosition=bottom;verticalAlign=top;align=center;flipH=1;" vertex="1" parent="KkvujRTfWo5065GrqcyY-23">
          <mxGeometry x="123" y="4.5" width="39" height="13" as="geometry" />
        </mxCell>
        <mxCell id="KkvujRTfWo5065GrqcyY-24" value="Road, by truck" style="text;html=1;align=center;verticalAlign=middle;resizable=0;points=[];autosize=1;strokeColor=none;fillColor=none;" vertex="1" parent="1">
          <mxGeometry x="154" y="650" width="90" height="20" as="geometry" />
        </mxCell>
        <mxCell id="KkvujRTfWo5065GrqcyY-31" value="" style="group" vertex="1" connectable="0" parent="1">
          <mxGeometry x="260" y="538" width="30" height="35" as="geometry" />
        </mxCell>
        <mxCell id="KkvujRTfWo5065GrqcyY-29" value="" style="shape=mxgraph.pid.vessels.bag;html=1;pointerEvents=1;align=center;verticalLabelPosition=bottom;verticalAlign=top;dashed=0;" vertex="1" parent="KkvujRTfWo5065GrqcyY-31">
          <mxGeometry x="10" y="10" width="15" height="25" as="geometry" />
        </mxCell>
        <mxCell id="KkvujRTfWo5065GrqcyY-30" value="R" style="text;html=1;align=center;verticalAlign=middle;resizable=0;points=[];autosize=1;strokeColor=none;fillColor=none;fontSize=13;spacingTop=7;spacingLeft=2;" vertex="1" parent="KkvujRTfWo5065GrqcyY-31">
          <mxGeometry y="5" width="30" height="30" as="geometry" />
        </mxCell>
        <mxCell id="KkvujRTfWo5065GrqcyY-32" value="" style="group" vertex="1" connectable="0" parent="1">
          <mxGeometry x="284" y="538" width="30" height="35" as="geometry" />
        </mxCell>
        <mxCell id="KkvujRTfWo5065GrqcyY-33" value="" style="shape=mxgraph.pid.vessels.bag;html=1;pointerEvents=1;align=center;verticalLabelPosition=bottom;verticalAlign=top;dashed=0;" vertex="1" parent="KkvujRTfWo5065GrqcyY-32">
          <mxGeometry x="10" y="10" width="15" height="25" as="geometry" />
        </mxCell>
        <mxCell id="KkvujRTfWo5065GrqcyY-34" value="R" style="text;html=1;align=center;verticalAlign=middle;resizable=0;points=[];autosize=1;strokeColor=none;fillColor=none;fontSize=13;spacingTop=7;spacingLeft=2;" vertex="1" parent="KkvujRTfWo5065GrqcyY-32">
          <mxGeometry y="5" width="30" height="30" as="geometry" />
        </mxCell>
        <mxCell id="KkvujRTfWo5065GrqcyY-35" value="" style="endArrow=none;html=1;rounded=0;" edge="1" parent="1">
          <mxGeometry relative="1" as="geometry">
            <mxPoint x="319" y="574" as="sourcePoint" />
            <mxPoint x="318.5454545454545" y="575" as="targetPoint" />
          </mxGeometry>
        </mxCell>
        <mxCell id="KkvujRTfWo5065GrqcyY-36" value="" style="group" vertex="1" connectable="0" parent="1">
          <mxGeometry x="324" y="538" width="30" height="35" as="geometry" />
        </mxCell>
        <mxCell id="KkvujRTfWo5065GrqcyY-37" value="" style="shape=mxgraph.pid.vessels.bag;html=1;pointerEvents=1;align=center;verticalLabelPosition=bottom;verticalAlign=top;dashed=0;" vertex="1" parent="KkvujRTfWo5065GrqcyY-36">
          <mxGeometry x="10" y="10" width="15" height="25" as="geometry" />
        </mxCell>
        <mxCell id="KkvujRTfWo5065GrqcyY-38" value="R" style="text;html=1;align=center;verticalAlign=middle;resizable=0;points=[];autosize=1;strokeColor=none;fillColor=none;fontSize=13;spacingTop=7;spacingLeft=2;" vertex="1" parent="KkvujRTfWo5065GrqcyY-36">
          <mxGeometry y="5" width="30" height="30" as="geometry" />
        </mxCell>
        <mxCell id="KkvujRTfWo5065GrqcyY-39" value="" style="group" vertex="1" connectable="0" parent="1">
          <mxGeometry x="348" y="538" width="30" height="35" as="geometry" />
        </mxCell>
        <mxCell id="KkvujRTfWo5065GrqcyY-40" value="" style="shape=mxgraph.pid.vessels.bag;html=1;pointerEvents=1;align=center;verticalLabelPosition=bottom;verticalAlign=top;dashed=0;" vertex="1" parent="KkvujRTfWo5065GrqcyY-39">
          <mxGeometry x="10" y="10" width="15" height="25" as="geometry" />
        </mxCell>
        <mxCell id="KkvujRTfWo5065GrqcyY-41" value="R" style="text;html=1;align=center;verticalAlign=middle;resizable=0;points=[];autosize=1;strokeColor=none;fillColor=none;fontSize=13;spacingTop=7;spacingLeft=2;" vertex="1" parent="KkvujRTfWo5065GrqcyY-39">
          <mxGeometry y="5" width="30" height="30" as="geometry" />
        </mxCell>
        <mxCell id="KkvujRTfWo5065GrqcyY-42" value="" style="group" vertex="1" connectable="0" parent="1">
          <mxGeometry x="380" y="538" width="30" height="35" as="geometry" />
        </mxCell>
        <mxCell id="KkvujRTfWo5065GrqcyY-43" value="" style="shape=mxgraph.pid.vessels.bag;html=1;pointerEvents=1;align=center;verticalLabelPosition=bottom;verticalAlign=top;dashed=0;" vertex="1" parent="KkvujRTfWo5065GrqcyY-42">
          <mxGeometry x="10" y="10" width="15" height="25" as="geometry" />
        </mxCell>
        <mxCell id="KkvujRTfWo5065GrqcyY-44" value="R" style="text;html=1;align=center;verticalAlign=middle;resizable=0;points=[];autosize=1;strokeColor=none;fillColor=none;fontSize=13;spacingTop=7;spacingLeft=2;" vertex="1" parent="KkvujRTfWo5065GrqcyY-42">
          <mxGeometry y="5" width="30" height="30" as="geometry" />
        </mxCell>
        <mxCell id="KkvujRTfWo5065GrqcyY-46" value="" style="endArrow=none;html=1;rounded=0;" edge="1" parent="1">
          <mxGeometry relative="1" as="geometry">
            <mxPoint x="148.38" y="646" as="sourcePoint" />
            <mxPoint x="147.9254545454545" y="647" as="targetPoint" />
          </mxGeometry>
        </mxCell>
        <mxCell id="KkvujRTfWo5065GrqcyY-47" value="" style="group" vertex="1" connectable="0" parent="1">
          <mxGeometry x="145.38" y="612" width="30" height="35" as="geometry" />
        </mxCell>
        <mxCell id="KkvujRTfWo5065GrqcyY-48" value="" style="shape=mxgraph.pid.vessels.bag;html=1;pointerEvents=1;align=center;verticalLabelPosition=bottom;verticalAlign=top;dashed=0;" vertex="1" parent="KkvujRTfWo5065GrqcyY-47">
          <mxGeometry x="10" y="10" width="15" height="25" as="geometry" />
        </mxCell>
        <mxCell id="KkvujRTfWo5065GrqcyY-49" value="R" style="text;html=1;align=center;verticalAlign=middle;resizable=0;points=[];autosize=1;strokeColor=none;fillColor=none;fontSize=13;spacingTop=7;spacingLeft=2;" vertex="1" parent="KkvujRTfWo5065GrqcyY-47">
          <mxGeometry y="5" width="30" height="30" as="geometry" />
        </mxCell>
        <mxCell id="KkvujRTfWo5065GrqcyY-50" value="" style="group" vertex="1" connectable="0" parent="1">
          <mxGeometry x="169.38" y="612" width="30" height="35" as="geometry" />
        </mxCell>
        <mxCell id="KkvujRTfWo5065GrqcyY-51" value="" style="shape=mxgraph.pid.vessels.bag;html=1;pointerEvents=1;align=center;verticalLabelPosition=bottom;verticalAlign=top;dashed=0;" vertex="1" parent="KkvujRTfWo5065GrqcyY-50">
          <mxGeometry x="10" y="10" width="15" height="25" as="geometry" />
        </mxCell>
        <mxCell id="KkvujRTfWo5065GrqcyY-52" value="R" style="text;html=1;align=center;verticalAlign=middle;resizable=0;points=[];autosize=1;strokeColor=none;fillColor=none;fontSize=13;spacingTop=7;spacingLeft=2;" vertex="1" parent="KkvujRTfWo5065GrqcyY-50">
          <mxGeometry y="5" width="30" height="30" as="geometry" />
        </mxCell>
        <mxCell id="KkvujRTfWo5065GrqcyY-53" value="" style="endArrow=none;html=1;rounded=0;" edge="1" parent="1">
          <mxGeometry relative="1" as="geometry">
            <mxPoint x="212.38" y="646" as="sourcePoint" />
            <mxPoint x="211.9254545454545" y="647" as="targetPoint" />
          </mxGeometry>
        </mxCell>
        <mxCell id="KkvujRTfWo5065GrqcyY-54" value="" style="group" vertex="1" connectable="0" parent="1">
          <mxGeometry x="209.38" y="612" width="30" height="35" as="geometry" />
        </mxCell>
        <mxCell id="KkvujRTfWo5065GrqcyY-55" value="" style="shape=mxgraph.pid.vessels.bag;html=1;pointerEvents=1;align=center;verticalLabelPosition=bottom;verticalAlign=top;dashed=0;" vertex="1" parent="KkvujRTfWo5065GrqcyY-54">
          <mxGeometry x="10" y="10" width="15" height="25" as="geometry" />
        </mxCell>
        <mxCell id="KkvujRTfWo5065GrqcyY-56" value="R" style="text;html=1;align=center;verticalAlign=middle;resizable=0;points=[];autosize=1;strokeColor=none;fillColor=none;fontSize=13;spacingTop=7;spacingLeft=2;" vertex="1" parent="KkvujRTfWo5065GrqcyY-54">
          <mxGeometry y="5" width="30" height="30" as="geometry" />
        </mxCell>
        <mxCell id="KkvujRTfWo5065GrqcyY-57" value="" style="group" vertex="1" connectable="0" parent="1">
          <mxGeometry x="233.38" y="612" width="30" height="35" as="geometry" />
        </mxCell>
        <mxCell id="KkvujRTfWo5065GrqcyY-58" value="" style="shape=mxgraph.pid.vessels.bag;html=1;pointerEvents=1;align=center;verticalLabelPosition=bottom;verticalAlign=top;dashed=0;" vertex="1" parent="KkvujRTfWo5065GrqcyY-57">
          <mxGeometry x="10" y="10" width="15" height="25" as="geometry" />
        </mxCell>
        <mxCell id="KkvujRTfWo5065GrqcyY-59" value="R" style="text;html=1;align=center;verticalAlign=middle;resizable=0;points=[];autosize=1;strokeColor=none;fillColor=none;fontSize=13;spacingTop=7;spacingLeft=2;" vertex="1" parent="KkvujRTfWo5065GrqcyY-57">
          <mxGeometry y="5" width="30" height="30" as="geometry" />
        </mxCell>
        <mxCell id="KkvujRTfWo5065GrqcyY-60" value="" style="group" vertex="1" connectable="0" parent="1">
          <mxGeometry x="265.38" y="612" width="30" height="35" as="geometry" />
        </mxCell>
        <mxCell id="KkvujRTfWo5065GrqcyY-61" value="" style="shape=mxgraph.pid.vessels.bag;html=1;pointerEvents=1;align=center;verticalLabelPosition=bottom;verticalAlign=top;dashed=0;" vertex="1" parent="KkvujRTfWo5065GrqcyY-60">
          <mxGeometry x="10" y="10" width="15" height="25" as="geometry" />
        </mxCell>
        <mxCell id="KkvujRTfWo5065GrqcyY-62" value="R" style="text;html=1;align=center;verticalAlign=middle;resizable=0;points=[];autosize=1;strokeColor=none;fillColor=none;fontSize=13;spacingTop=7;spacingLeft=2;" vertex="1" parent="KkvujRTfWo5065GrqcyY-60">
          <mxGeometry y="5" width="30" height="30" as="geometry" />
        </mxCell>
        <mxCell id="KkvujRTfWo5065GrqcyY-63" value="" style="verticalLabelPosition=bottom;html=1;verticalAlign=top;align=center;shape=mxgraph.floorplan.room;fillColor=#0F2FFF;fontSize=13;strokeWidth=1;wallThickness=3;" vertex="1" parent="1">
          <mxGeometry x="90.57" y="320" width="139.62" height="140" as="geometry" />
        </mxCell>
        <mxCell id="KkvujRTfWo5065GrqcyY-64" value="Uitloopcarre" style="text;html=1;align=center;verticalAlign=middle;resizable=0;points=[];autosize=1;strokeColor=none;fillColor=none;fontSize=13;fontColor=#000000;" vertex="1" parent="1">
          <mxGeometry x="130" y="380" width="80" height="20" as="geometry" />
        </mxCell>
        <mxCell id="KkvujRTfWo5065GrqcyY-65" value="" style="endArrow=none;html=1;rounded=0;" edge="1" parent="1">
          <mxGeometry relative="1" as="geometry">
            <mxPoint x="160.45" y="446" as="sourcePoint" />
            <mxPoint x="159.9954545454546" y="447" as="targetPoint" />
          </mxGeometry>
        </mxCell>
        <mxCell id="KkvujRTfWo5065GrqcyY-66" value="" style="group" vertex="1" connectable="0" parent="1">
          <mxGeometry x="165.45" y="410" width="30" height="35" as="geometry" />
        </mxCell>
        <mxCell id="KkvujRTfWo5065GrqcyY-67" value="" style="shape=mxgraph.pid.vessels.bag;html=1;pointerEvents=1;align=center;verticalLabelPosition=bottom;verticalAlign=top;dashed=0;" vertex="1" parent="KkvujRTfWo5065GrqcyY-66">
          <mxGeometry x="10" y="10" width="15" height="25" as="geometry" />
        </mxCell>
        <mxCell id="KkvujRTfWo5065GrqcyY-68" value="R" style="text;html=1;align=center;verticalAlign=middle;resizable=0;points=[];autosize=1;strokeColor=none;fillColor=none;fontSize=13;spacingTop=7;spacingLeft=2;" vertex="1" parent="KkvujRTfWo5065GrqcyY-66">
          <mxGeometry y="5" width="30" height="30" as="geometry" />
        </mxCell>
        <mxCell id="KkvujRTfWo5065GrqcyY-69" value="" style="group" vertex="1" connectable="0" parent="1">
          <mxGeometry x="189.45" y="410" width="30" height="35" as="geometry" />
        </mxCell>
        <mxCell id="KkvujRTfWo5065GrqcyY-70" value="" style="shape=mxgraph.pid.vessels.bag;html=1;pointerEvents=1;align=center;verticalLabelPosition=bottom;verticalAlign=top;dashed=0;" vertex="1" parent="KkvujRTfWo5065GrqcyY-69">
          <mxGeometry x="10" y="10" width="15" height="25" as="geometry" />
        </mxCell>
        <mxCell id="KkvujRTfWo5065GrqcyY-71" value="R" style="text;html=1;align=center;verticalAlign=middle;resizable=0;points=[];autosize=1;strokeColor=none;fillColor=none;fontSize=13;spacingTop=7;spacingLeft=2;" vertex="1" parent="KkvujRTfWo5065GrqcyY-69">
          <mxGeometry y="5" width="30" height="30" as="geometry" />
        </mxCell>
        <mxCell id="KkvujRTfWo5065GrqcyY-72" value="" style="endArrow=none;html=1;rounded=0;" edge="1" parent="1">
          <mxGeometry relative="1" as="geometry">
            <mxPoint x="165.90000000000003" y="366" as="sourcePoint" />
            <mxPoint x="165.44545454545454" y="367" as="targetPoint" />
          </mxGeometry>
        </mxCell>
        <mxCell id="KkvujRTfWo5065GrqcyY-73" value="" style="group" vertex="1" connectable="0" parent="1">
          <mxGeometry x="170.89999999999998" y="330" width="30" height="35" as="geometry" />
        </mxCell>
        <mxCell id="KkvujRTfWo5065GrqcyY-74" value="" style="shape=mxgraph.pid.vessels.bag;html=1;pointerEvents=1;align=center;verticalLabelPosition=bottom;verticalAlign=top;dashed=0;" vertex="1" parent="KkvujRTfWo5065GrqcyY-73">
          <mxGeometry x="10" y="10" width="15" height="25" as="geometry" />
        </mxCell>
        <mxCell id="KkvujRTfWo5065GrqcyY-75" value="R" style="text;html=1;align=center;verticalAlign=middle;resizable=0;points=[];autosize=1;strokeColor=none;fillColor=none;fontSize=13;spacingTop=7;spacingLeft=2;" vertex="1" parent="KkvujRTfWo5065GrqcyY-73">
          <mxGeometry y="5" width="30" height="30" as="geometry" />
        </mxCell>
        <mxCell id="KkvujRTfWo5065GrqcyY-76" value="" style="group" vertex="1" connectable="0" parent="1">
          <mxGeometry x="194.89999999999998" y="330" width="30" height="35" as="geometry" />
        </mxCell>
        <mxCell id="KkvujRTfWo5065GrqcyY-77" value="" style="shape=mxgraph.pid.vessels.bag;html=1;pointerEvents=1;align=center;verticalLabelPosition=bottom;verticalAlign=top;dashed=0;" vertex="1" parent="KkvujRTfWo5065GrqcyY-76">
          <mxGeometry x="10" y="10" width="15" height="25" as="geometry" />
        </mxCell>
        <mxCell id="KkvujRTfWo5065GrqcyY-78" value="R" style="text;html=1;align=center;verticalAlign=middle;resizable=0;points=[];autosize=1;strokeColor=none;fillColor=none;fontSize=13;spacingTop=7;spacingLeft=2;" vertex="1" parent="KkvujRTfWo5065GrqcyY-76">
          <mxGeometry y="5" width="30" height="30" as="geometry" />
        </mxCell>
        <mxCell id="KkvujRTfWo5065GrqcyY-79" value="" style="endArrow=none;html=1;rounded=0;" edge="1" parent="1">
          <mxGeometry relative="1" as="geometry">
            <mxPoint x="111.90000000000009" y="367.5" as="sourcePoint" />
            <mxPoint x="111.4454545454546" y="368.5" as="targetPoint" />
          </mxGeometry>
        </mxCell>
        <mxCell id="KkvujRTfWo5065GrqcyY-80" value="" style="group" vertex="1" connectable="0" parent="1">
          <mxGeometry x="116.89999999999998" y="331.5" width="30" height="35" as="geometry" />
        </mxCell>
        <mxCell id="KkvujRTfWo5065GrqcyY-81" value="" style="shape=mxgraph.pid.vessels.bag;html=1;pointerEvents=1;align=center;verticalLabelPosition=bottom;verticalAlign=top;dashed=0;" vertex="1" parent="KkvujRTfWo5065GrqcyY-80">
          <mxGeometry x="10" y="10" width="15" height="25" as="geometry" />
        </mxCell>
        <mxCell id="KkvujRTfWo5065GrqcyY-82" value="R" style="text;html=1;align=center;verticalAlign=middle;resizable=0;points=[];autosize=1;strokeColor=none;fillColor=none;fontSize=13;spacingTop=7;spacingLeft=2;" vertex="1" parent="KkvujRTfWo5065GrqcyY-80">
          <mxGeometry y="5" width="30" height="30" as="geometry" />
        </mxCell>
        <mxCell id="KkvujRTfWo5065GrqcyY-83" value="" style="group" vertex="1" connectable="0" parent="1">
          <mxGeometry x="140.89999999999998" y="331.5" width="30" height="35" as="geometry" />
        </mxCell>
        <mxCell id="KkvujRTfWo5065GrqcyY-84" value="" style="shape=mxgraph.pid.vessels.bag;html=1;pointerEvents=1;align=center;verticalLabelPosition=bottom;verticalAlign=top;dashed=0;" vertex="1" parent="KkvujRTfWo5065GrqcyY-83">
          <mxGeometry x="10" y="10" width="15" height="25" as="geometry" />
        </mxCell>
        <mxCell id="KkvujRTfWo5065GrqcyY-85" value="R" style="text;html=1;align=center;verticalAlign=middle;resizable=0;points=[];autosize=1;strokeColor=none;fillColor=none;fontSize=13;spacingTop=7;spacingLeft=2;" vertex="1" parent="KkvujRTfWo5065GrqcyY-83">
          <mxGeometry y="5" width="30" height="30" as="geometry" />
        </mxCell>
        <mxCell id="KkvujRTfWo5065GrqcyY-86" value="" style="endArrow=none;html=1;rounded=0;" edge="1" parent="1">
          <mxGeometry relative="1" as="geometry">
            <mxPoint x="105.1300000000001" y="436" as="sourcePoint" />
            <mxPoint x="104.6754545454546" y="437" as="targetPoint" />
          </mxGeometry>
        </mxCell>
        <mxCell id="KkvujRTfWo5065GrqcyY-87" value="" style="group" vertex="1" connectable="0" parent="1">
          <mxGeometry x="110.12999999999998" y="400" width="30" height="35" as="geometry" />
        </mxCell>
        <mxCell id="KkvujRTfWo5065GrqcyY-88" value="" style="shape=mxgraph.pid.vessels.bag;html=1;pointerEvents=1;align=center;verticalLabelPosition=bottom;verticalAlign=top;dashed=0;" vertex="1" parent="KkvujRTfWo5065GrqcyY-87">
          <mxGeometry x="10" y="10" width="15" height="25" as="geometry" />
        </mxCell>
        <mxCell id="KkvujRTfWo5065GrqcyY-89" value="R" style="text;html=1;align=center;verticalAlign=middle;resizable=0;points=[];autosize=1;strokeColor=none;fillColor=none;fontSize=13;spacingTop=7;spacingLeft=2;" vertex="1" parent="KkvujRTfWo5065GrqcyY-87">
          <mxGeometry y="5" width="30" height="30" as="geometry" />
        </mxCell>
        <mxCell id="KkvujRTfWo5065GrqcyY-90" value="" style="group" vertex="1" connectable="0" parent="1">
          <mxGeometry x="134.12999999999997" y="400" width="30" height="35" as="geometry" />
        </mxCell>
        <mxCell id="KkvujRTfWo5065GrqcyY-91" value="" style="shape=mxgraph.pid.vessels.bag;html=1;pointerEvents=1;align=center;verticalLabelPosition=bottom;verticalAlign=top;dashed=0;" vertex="1" parent="KkvujRTfWo5065GrqcyY-90">
          <mxGeometry x="10" y="10" width="15" height="25" as="geometry" />
        </mxCell>
        <mxCell id="KkvujRTfWo5065GrqcyY-92" value="R" style="text;html=1;align=center;verticalAlign=middle;resizable=0;points=[];autosize=1;strokeColor=none;fillColor=none;fontSize=13;spacingTop=7;spacingLeft=2;" vertex="1" parent="KkvujRTfWo5065GrqcyY-90">
          <mxGeometry y="5" width="30" height="30" as="geometry" />
        </mxCell>
        <mxCell id="KkvujRTfWo5065GrqcyY-99" value="" style="curved=1;endArrow=classic;html=1;rounded=0;fontSize=13;fontColor=#0829FF;entryX=1;entryY=0.75;entryDx=0;entryDy=0;entryPerimeter=0;exitX=0.485;exitY=0.833;exitDx=0;exitDy=0;exitPerimeter=0;" edge="1" parent="1" source="KkvujRTfWo5065GrqcyY-68" target="KkvujRTfWo5065GrqcyY-3">
          <mxGeometry width="50" height="50" relative="1" as="geometry">
            <mxPoint x="150" y="530" as="sourcePoint" />
            <mxPoint x="200" y="480" as="targetPoint" />
            <Array as="points">
              <mxPoint x="160" y="460" />
              <mxPoint x="180" y="500" />
            </Array>
          </mxGeometry>
        </mxCell>
        <mxCell id="KkvujRTfWo5065GrqcyY-100" value="" style="curved=1;endArrow=classic;html=1;rounded=0;fontSize=13;fontColor=#0829FF;exitX=0.476;exitY=1.073;exitDx=0;exitDy=0;exitPerimeter=0;startArrow=none;" edge="1" parent="1" source="KkvujRTfWo5065GrqcyY-106" target="KkvujRTfWo5065GrqcyY-49">
          <mxGeometry width="50" height="50" relative="1" as="geometry">
            <mxPoint x="290" y="670" as="sourcePoint" />
            <mxPoint x="340" y="620" as="targetPoint" />
            <Array as="points">
              <mxPoint x="180" y="490" />
              <mxPoint x="180" y="580" />
            </Array>
          </mxGeometry>
        </mxCell>
        <mxCell id="KkvujRTfWo5065GrqcyY-102" value="IPS&lt;font color=&quot;#000000&quot;&gt;:&lt;br&gt;&lt;/font&gt;&lt;div&gt;&lt;font color=&quot;#000000&quot;&gt;receive receptacle&lt;br&gt;add assist-label;&lt;br&gt;add weight;&lt;br&gt;check by customs&lt;/font&gt;&lt;/div&gt;" style="text;html=1;align=center;verticalAlign=middle;resizable=0;points=[];autosize=1;strokeColor=none;fillColor=none;fontSize=13;fontColor=#031CFF;" vertex="1" parent="1">
          <mxGeometry x="30" y="185" width="120" height="90" as="geometry" />
        </mxCell>
        <mxCell id="KkvujRTfWo5065GrqcyY-109" value="" style="curved=1;endArrow=none;html=1;rounded=0;fontSize=13;fontColor=#0829FF;exitX=0.476;exitY=1.073;exitDx=0;exitDy=0;exitPerimeter=0;" edge="1" parent="1" source="KkvujRTfWo5065GrqcyY-89" target="KkvujRTfWo5065GrqcyY-106">
          <mxGeometry width="50" height="50" relative="1" as="geometry">
            <mxPoint x="124.40999999999997" y="437.19000000000005" as="sourcePoint" />
            <mxPoint x="166.03961538461544" y="617" as="targetPoint" />
            <Array as="points" />
          </mxGeometry>
        </mxCell>
        <mxCell id="KkvujRTfWo5065GrqcyY-106" value="" style="shape=image;html=1;verticalAlign=top;verticalLabelPosition=bottom;labelBackgroundColor=#ffffff;imageAspect=0;aspect=fixed;image=https://cdn0.iconfinder.com/data/icons/google-material-design-3-0/48/ic_face_48px-128.png;sketch=0;fontFamily=Helvetica;fontSize=13;fontColor=#000000;strokeColor=default;strokeWidth=9;fillColor=#FFFFFF;imageBackground=default;" vertex="1" parent="1">
          <mxGeometry x="155" y="483" width="55" height="55" as="geometry" />
        </mxCell>
        <mxCell id="KkvujRTfWo5065GrqcyY-111" value="" style="shape=image;html=1;verticalAlign=top;verticalLabelPosition=bottom;labelBackgroundColor=#ffffff;imageAspect=0;aspect=fixed;image=https://cdn0.iconfinder.com/data/icons/google-material-design-3-0/48/ic_face_48px-128.png;sketch=0;fontFamily=Helvetica;fontSize=13;fontColor=#000000;strokeColor=default;strokeWidth=9;fillColor=#FFFFFF;imageBackground=default;" vertex="1" parent="1">
          <mxGeometry x="400" y="435" width="55" height="55" as="geometry" />
        </mxCell>
      </root>
    </mxGraphModel>
  </diagram>
</mxfile>
